<?xml version="1.0" encoding="UTF-8" standalone="no"?>
<svg
   xmlns:dc="http://purl.org/dc/elements/1.1/"
   xmlns:cc="http://creativecommons.org/ns#"
   xmlns:rdf="http://www.w3.org/1999/02/22-rdf-syntax-ns#"
   xmlns:svg="http://www.w3.org/2000/svg"
   xmlns="http://www.w3.org/2000/svg"
   xmlns:sodipodi="http://sodipodi.sourceforge.net/DTD/sodipodi-0.dtd"
   xmlns:inkscape="http://www.inkscape.org/namespaces/inkscape"
   inkscape:version="1.0beta2 (2b71d25, 2019-12-03)"
   sodipodi:docname="nn_transfer.svg"
   id="svg201"
   version="1.1"
   style="background-color: rgb(255, 255, 255);"
   height="976"
   width="1920"
   viewBox="-960 -488 1920 976">
  <metadata
     id="metadata207">
    <rdf:RDF>
      <cc:Work
         rdf:about="">
        <dc:format>image/svg+xml</dc:format>
        <dc:type
           rdf:resource="http://purl.org/dc/dcmitype/StillImage" />
      </cc:Work>
    </rdf:RDF>
  </metadata>
  <defs
     id="defs205" />
  <sodipodi:namedview
     inkscape:current-layer="svg201"
     inkscape:window-maximized="0"
     inkscape:window-y="23"
     inkscape:window-x="0"
     inkscape:cy="521.26799"
     inkscape:cx="1014.1238"
     inkscape:zoom="1.9939088"
     showgrid="false"
     id="namedview203"
     inkscape:window-height="956"
     inkscape:window-width="1680"
     inkscape:pageshadow="2"
     inkscape:pageopacity="0"
     guidetolerance="10"
     gridtolerance="10"
     objecttolerance="10"
     borderopacity="1"
     inkscape:document-rotation="0"
     bordercolor="#666666"
     pagecolor="#ffffff" />
  <path
     id="path81"
     style="fill:none;stroke:rgb(0,0,0);stroke-width:1;stroke-linecap:round"
     d="M-6.279071362697346,9.96087391015103L-156.27900005950514,-8.415748770703269M-156.27900005950514,-36.1705425440112L-156.27900005950514,-8.415748770703269M-156.27900005950514,-8.415748770703269L-165.230032015077,2.979142321829306M-6.279071362697346,-17.7939198631569L-156.27900005950514,-36.1705425440112M-156.27900005950514,-36.1705425440112L-165.230032015077,-24.775651451478627" />
  <path
     id="path83"
     style="fill:rgb(238,238,238); fill-opacity: 0.4"
     d="M-156.27900005950514,-36.1705425440112L-156.27900005950514,-8.415748770703267L-165.23003201507697,-24.775651451478627zM-6.279071362697346,9.960873910151031L-156.27900005950514,-8.415748770703267L-156.27900005950514,-36.1705425440112zM-156.27900005950514,-8.415748770703267L-165.23003201507697,2.979142321829306L-165.23003201507697,-24.775651451478627zM-165.23003201507697,2.979142321829306L-156.27900005950514,-8.415748770703267L-6.279071362697346,9.960873910151031z" />
  <path
     id="path85"
     style="fill:none;stroke:rgb(0,0,0);stroke-width:1;stroke-linecap:round"
     d="M-165.230032015077,-24.775651451478627L-165.230032015077,2.979142321829306M-165.230032015077,2.979142321829306L-15.230103318269208,21.355765002683604" />
  <path
     id="path87"
     style="fill:rgb(238,238,238); fill-opacity: 0.4"
     d="M-6.27907136269735,-17.7939198631569L-6.279071362697346,9.960873910151031L-156.27900005950514,-36.1705425440112z" />
  <path
     id="path89"
     style="fill:none;stroke:rgb(0,0,0);stroke-width:1;stroke-linecap:round"
     d="M-165.230032015077,-24.775651451478627L-15.230103318269208,-6.399028770624327M-6.279071362697346,-17.7939198631569L-6.279071362697346,9.96087391015103M-6.279071362697346,9.96087391015103L-15.230103318269208,21.355765002683604" />
  <path
     id="path91"
     style="fill:rgb(238,238,238); fill-opacity: 0.4"
     d="M-165.23003201507697,-24.775651451478627L-15.230103318269208,-6.399028770624327L-156.27900005950514,-36.1705425440112zM-15.230103318269204,21.355765002683604L-165.23003201507697,2.979142321829306L-6.279071362697346,9.960873910151031zM-165.23003201507697,-24.775651451478627L-165.23003201507697,2.979142321829306L-15.230103318269208,-6.399028770624327zM-15.230103318269208,-6.399028770624327L-6.27907136269735,-17.7939198631569L-156.27900005950514,-36.1705425440112z" />
  <path
     id="path93"
     style="fill:none;stroke:rgb(0,0,0);stroke-width:1;stroke-linecap:round"
     d="M-6.279071362697346,-17.7939198631569L-15.230103318269208,-6.399028770624327M85.091568126269,33.90561271876131L56.23768154470973,30.370697794519995M56.23768154470972,-22.885779407239216L56.23768154470973,30.370697794519995M56.23768154470973,30.370697794519995L47.286649589137866,41.76558888705257" />
  <path
     id="path95"
     style="fill:rgb(238,238,238); fill-opacity: 0.4"
     d="M-15.230103318269204,21.355765002683604L-6.279071362697346,9.960873910151031L-6.27907136269735,-17.7939198631569zM-165.23003201507697,2.979142321829306L-15.230103318269204,21.355765002683604L-15.230103318269208,-6.399028770624327z" />
  <path
     id="path97"
     style="fill:none;stroke:rgb(0,0,0);stroke-width:1;stroke-linecap:round"
     d="M162.03526567709372,80.83100426203991L133.18137909553445,77.2960893377986M133.18137909553445,-50.95829135456412L133.18137909553445,77.2960893377986M133.18137909553445,77.2960893377986L124.23034713996259,88.69098043033117M85.091568126269,-19.350864482997903L85.091568126269,33.90561271876131M85.091568126269,33.90561271876131L76.14053617069713,45.300503811293886" />
  <path
     id="path99"
     style="fill:rgb(238,238,238); fill-opacity: 0.4"
     d="M85.09156812626901,33.90561271876131L56.23768154470974,30.37069779451999L56.23768154470974,-22.885779407239223zM47.28664958913787,41.765588887052566L56.23768154470974,30.37069779451999L85.09156812626901,33.90561271876131z" />
  <path
     id="path101"
     style="fill:none;stroke:rgb(0,0,0);stroke-width:1;stroke-linecap:round"
     d="M6.076845146121636,3.842956109857921L33.32773802870539,7.181486871641383" />
  <path
     id="path103"
     style="fill:rgb(238,238,238); fill-opacity: 0.4"
     d="M-15.230103318269208,-6.399028770624327L-15.230103318269204,21.355765002683604L-6.27907136269735,-17.7939198631569z" />
  <path
     id="path105"
     style="fill:none;stroke:rgb(0,0,0);stroke-width:1;stroke-linecap:round"
     d="M162.03526567709372,-47.42337643032279L162.03526567709372,80.83100426203991M162.03526567709372,80.83100426203991L153.08423372152185,92.22589535457249M-15.230103318269208,-6.399028770624327L-15.230103318269208,21.355765002683604" />
  <path
     id="path107"
     style="fill:rgb(238,238,238); fill-opacity: 0.4"
     d="M124.23034713996262,88.69098043033118L133.18137909553448,77.2960893377986L162.03526567709372,80.83100426203993zM85.09156812626901,-19.350864482997903L85.09156812626901,33.90561271876131L56.23768154470974,-22.885779407239223z" />
  <path
     id="path109"
     style="fill:rgb(0,0,0)"
     d="M31.55420938678741,11.22604705401766L33.3277380287054,12.963735574413871L49.35767501846054,9.145328496219891zM34.42383896661173,1.1081850160539288L32.23163709079903,3.8989136998211653L49.35767501846054,9.145328496219891z" />
  <path
     id="path111"
     style="fill:none;stroke:rgb(0,0,0);stroke-width:1;stroke-linecap:round"
     d="M85.091568126269,-19.350864482997903L56.23768154470972,-22.885779407239216M56.23768154470972,-22.885779407239216L47.286649589137866,-11.490888314706645" />
  <path
     id="path113"
     style="fill:rgb(238,238,238); fill-opacity: 0.4"
     d="M76.14053617069716,45.300503811293886L47.28664958913787,41.765588887052566L85.09156812626901,33.90561271876131zM56.23768154470974,-22.885779407239223L56.23768154470974,30.37069779451999L47.28664958913787,-11.490888314706645z" />
  <path
     id="path115"
     style="fill:rgb(0,0,0)"
     d="M32.23163709079903,3.8989136998211653L31.55420938678741,11.22604705401766L49.35767501846054,9.145328496219891z" />
  <path
     id="path117"
     style="fill:none;stroke:rgb(0,0,0);stroke-width:1;stroke-linecap:round"
     d="M238.9789632279184,98.27334395616585L210.12507664635913,94.73842903192453M210.12507664635913,-49.54775145273635L210.12507664635913,94.73842903192453M210.12507664635913,94.73842903192453L201.1740446907873,106.13332012445709" />
  <path
     id="path119"
     style="fill:rgb(238,238,238); fill-opacity: 0.4"
     d="M76.14053617069716,45.300503811293886L85.09156812626901,33.90561271876131L85.09156812626901,-19.350864482997903zM56.23768154470974,30.37069779451999L47.28664958913787,41.765588887052566L47.28664958913787,-11.490888314706645z" />
  <path
     id="path121"
     style="fill:none;stroke:rgb(0,0,0);stroke-width:1;stroke-linecap:round"
     d="M47.286649589137866,-11.490888314706645L47.286649589137866,41.76558888705257M47.286649589137866,41.76558888705257L76.14053617069713,45.300503811293886" />
  <path
     id="path123"
     style="fill:rgb(238,238,238); fill-opacity: 0.4"
     d="M162.03526567709372,80.83100426203993L133.18137909553448,77.2960893377986L133.18137909553445,-50.95829135456412zM153.08423372152188,92.22589535457249L124.23034713996262,88.69098043033118L162.03526567709372,80.83100426203993z" />
  <path
     id="path125"
     style="fill:none;stroke:rgb(0,0,0);stroke-width:1;stroke-linecap:round"
     d="M85.091568126269,-19.350864482997903L76.14053617069713,-7.955973390465326M124.23034713996259,-39.56340026203155L124.23034713996259,88.69098043033117M124.23034713996259,88.69098043033117L153.08423372152185,92.22589535457249M238.9789632279184,-46.01283652849502L238.9789632279184,98.27334395616585M238.9789632279184,98.27334395616585L230.02793127234654,109.66823504869842M83.02054269694634,13.269395907834772L110.27143557953008,16.607926669618234M76.14053617069713,-7.955973390465326L76.14053617069713,45.300503811293886" />
  <path
     id="path127"
     style="fill:rgb(238,238,238); fill-opacity: 0.4"
     d="M201.17404469078733,106.13332012445709L210.12507664635916,94.73842903192453L238.9789632279184,98.27334395616585zM76.14053617069716,-7.955973390465326L85.09156812626901,-19.350864482997903L56.23768154470974,-22.885779407239223zM47.28664958913787,41.765588887052566L76.14053617069716,45.300503811293886L76.14053617069716,-7.955973390465326z" />
  <path
     id="path129"
     style="fill:none;stroke:rgb(0,0,0);stroke-width:1;stroke-linecap:round"
     d="M153.08423372152185,-36.02848533779024L153.08423372152185,92.22589535457249" />
  <path
     id="path131"
     style="fill:rgb(238,238,238); fill-opacity: 0.4"
     d="M76.14053617069716,-7.955973390465326L76.14053617069716,45.300503811293886L85.09156812626901,-19.350864482997903zM153.08423372152188,92.22589535457249L162.03526567709372,80.83100426203993L162.03526567709372,-47.4233764303228zM133.18137909553448,77.2960893377986L124.23034713996262,88.69098043033118L124.23034713996259,-39.56340026203155zM47.28664958913787,-11.490888314706645L76.14053617069716,-7.955973390465326L56.23768154470974,-22.885779407239223z" />
  <path
     id="path133"
     style="fill:rgb(0,0,0)"
     d="M108.49790693761213,20.652486851994507L110.27143557953009,22.390175372390715L126.30137256928523,18.571768294196737zM111.36753651743646,10.534624814030778L109.17533464162373,13.325353497798014L126.30137256928523,18.571768294196737z" />
  <path
     id="path135"
     style="fill:rgb(238,238,238); fill-opacity: 0.4"
     d="M47.28664958913787,-11.490888314706645L47.28664958913787,41.765588887052566L76.14053617069716,-7.955973390465326z" />
  <path
     id="path137"
     style="fill:rgb(0,0,0)"
     d="M109.17533464162373,13.325353497798014L108.49790693761213,20.652486851994507L126.30137256928523,18.571768294196737z" />
  <path
     id="path139"
     style="fill:rgb(238,238,238); fill-opacity: 0.4"
     d="M230.02793127234656,109.66823504869842L201.17404469078733,106.13332012445709L238.9789632279184,98.27334395616585zM238.9789632279184,98.27334395616585L210.12507664635916,94.73842903192453L210.12507664635916,-49.54775145273635zM162.03526567709372,-47.4233764303228L162.03526567709372,80.83100426203993L133.18137909553445,-50.95829135456412z" />
  <path
     id="path141"
     style="fill:none;stroke:rgb(0,0,0);stroke-width:1;stroke-linecap:round"
     d="M47.286649589137866,-11.490888314706645L76.14053617069713,-7.955973390465326M201.1740446907873,-38.15286036020378L201.1740446907873,106.13332012445709M201.1740446907873,106.13332012445709L230.02793127234654,109.66823504869842" />
  <path
     id="path143"
     style="fill:rgb(238,238,238); fill-opacity: 0.4"
     d="M133.18137909553445,-50.95829135456412L133.18137909553448,77.2960893377986L124.23034713996259,-39.56340026203155z" />
  <path
     id="path145"
     style="fill:none;stroke:rgb(0,0,0);stroke-width:1;stroke-linecap:round"
     d="M159.96424024777104,22.695835705811618L187.21513313035481,26.03436646759508" />
  <path
     id="path147"
     style="fill:rgb(238,238,238); fill-opacity: 0.4"
     d="M124.23034713996262,88.69098043033118L153.08423372152188,92.22589535457249L153.08423372152188,-36.02848533779023z" />
  <path
     id="path149"
     style="fill:none;stroke:rgb(0,0,0);stroke-width:1;stroke-linecap:round"
     d="M230.02793127234654,-34.617945435962454L230.02793127234654,109.66823504869842M162.03526567709372,-47.42337643032279L133.18137909553445,-50.95829135456412M133.18137909553445,-50.95829135456412L124.23034713996259,-39.56340026203155" />
  <path
     id="path151"
     style="fill:rgb(238,238,238); fill-opacity: 0.4"
     d="M230.02793127234656,109.66823504869842L238.9789632279184,98.27334395616585L238.9789632279184,-46.01283652849503zM210.12507664635916,94.73842903192453L201.17404469078733,106.13332012445709L201.1740446907873,-38.15286036020378z" />
  <path
     id="path153"
     style="fill:rgb(0,0,0)"
     d="M185.4416044884368,30.07892664997135L187.2151331303548,31.816615170367566L203.24507012010997,27.998208092173584z" />
  <path
     id="path155"
     style="fill:none;stroke:rgb(0,0,0);stroke-width:1;stroke-linecap:round"
     d="M315.92266077874314,62.184932112691854L287.06877419718387,58.65001718845054M287.06877419718387,5.3935399866913265L287.06877419718387,58.65001718845054M287.06877419718387,58.65001718845054L278.117742241612,70.04490828098312" />
  <path
     id="path157"
     style="fill:rgb(0,0,0)"
     d="M188.31123406826117,19.961064612007622L186.11903219244843,22.75179329577486L203.24507012010997,27.998208092173584zM186.11903219244843,22.75179329577486L185.4416044884368,30.07892664997135L203.24507012010997,27.998208092173584z" />
  <path
     id="path159"
     style="fill:rgb(238,238,238); fill-opacity: 0.4"
     d="M153.08423372152188,-36.02848533779023L153.08423372152188,92.22589535457249L162.03526567709372,-47.4233764303228z" />
  <path
     id="path161"
     style="fill:none;stroke:rgb(0,0,0);stroke-width:1;stroke-linecap:round"
     d="M162.03526567709372,-47.42337643032279L153.08423372152185,-36.02848533779024" />
  <path
     id="path163"
     style="fill:rgb(238,238,238); fill-opacity: 0.4"
     d="M238.9789632279184,-46.01283652849503L238.9789632279184,98.27334395616585L210.12507664635916,-49.54775145273635zM124.23034713996259,-39.56340026203155L124.23034713996262,88.69098043033118L153.08423372152188,-36.02848533779023z" />
  <path
     id="path165"
     style="fill:none;stroke:rgb(0,0,0);stroke-width:1;stroke-linecap:round"
     d="M315.92266077874314,8.92845491093264L315.92266077874314,62.184932112691854M315.92266077874314,62.184932112691854L306.97162882317133,73.57982320522441" />
  <path
     id="path167"
     style="fill:rgb(238,238,238); fill-opacity: 0.4"
     d="M210.12507664635916,-49.54775145273635L210.12507664635916,94.73842903192453L201.1740446907873,-38.15286036020378zM153.08423372152188,-36.02848533779023L162.03526567709372,-47.4233764303228L133.18137909553445,-50.95829135456412zM315.9226607787431,62.18493211269187L287.06877419718387,58.65001718845054L287.06877419718387,5.393539986691327zM201.17404469078733,106.13332012445709L230.02793127234656,109.66823504869842L230.02793127234656,-34.61794543596246zM278.117742241612,70.04490828098312L287.06877419718387,58.65001718845054L315.9226607787431,62.18493211269187z" />
  <path
     id="path169"
     style="fill:none;stroke:rgb(0,0,0);stroke-width:1;stroke-linecap:round"
     d="M236.90793779859575,32.122275503788465L264.1588306811795,35.460806265571925" />
  <path
     id="path171"
     style="fill:rgb(238,238,238); fill-opacity: 0.4"
     d="M124.23034713996259,-39.56340026203155L153.08423372152188,-36.02848533779023L133.18137909553445,-50.95829135456412z" />
  <path
     id="path173"
     style="fill:none;stroke:rgb(0,0,0);stroke-width:1;stroke-linecap:round"
     d="M238.9789632279184,-46.01283652849502L210.12507664635913,-49.54775145273635M210.12507664635913,-49.54775145273635L201.1740446907873,-38.15286036020378" />
  <path
     id="path175"
     style="fill:rgb(238,238,238); fill-opacity: 0.4"
     d="M315.9226607787431,8.928454910932649L315.9226607787431,62.18493211269187L287.06877419718387,5.393539986691327z" />
  <path
     id="path177"
     style="fill:rgb(0,0,0)"
     d="M262.38530203926155,39.505366447948205L264.1588306811795,41.24305496834442L280.1887676709347,37.42464789015044z" />
  <path
     id="path179"
     style="fill:none;stroke:rgb(0,0,0);stroke-width:1;stroke-linecap:round"
     d="M124.23034713996259,-39.56340026203155L153.08423372152185,-36.02848533779024" />
  <path
     id="path181"
     style="fill:rgb(0,0,0)"
     d="M265.2549316190858,29.387504409984476L263.06272974327317,32.178233093751714L280.1887676709347,37.42464789015044z" />
  <path
     id="path183"
     style="fill:none;stroke:rgb(0,0,0);stroke-width:1;stroke-linecap:round"
     d="M315.92266077874314,8.92845491093264L287.06877419718387,5.3935399866913265M287.06877419718387,5.3935399866913265L278.117742241612,16.788431079223898" />
  <path
     id="path185"
     style="fill:rgb(238,238,238); fill-opacity: 0.4"
     d="M306.9716288231713,73.57982320522444L278.117742241612,70.04490828098312L315.9226607787431,62.18493211269187zM287.06877419718387,5.393539986691327L287.06877419718387,58.65001718845054L278.117742241612,16.7884310792239z" />
  <path
     id="path187"
     style="fill:rgb(0,0,0)"
     d="M263.06272974327317,32.178233093751714L262.38530203926155,39.505366447948205L280.1887676709347,37.42464789015044z" />
  <path
     id="path189"
     style="fill:rgb(238,238,238); fill-opacity: 0.4"
     d="M306.9716288231713,73.57982320522444L315.9226607787431,62.18493211269187L315.9226607787431,8.928454910932649zM287.06877419718387,58.65001718845054L278.117742241612,70.04490828098312L278.117742241612,16.7884310792239zM230.02793127234656,-34.61794543596246L230.02793127234656,109.66823504869842L238.9789632279184,-46.01283652849503z" />
  <path
     id="path191"
     style="fill:none;stroke:rgb(0,0,0);stroke-width:1;stroke-linecap:round"
     d="M278.117742241612,16.788431079223898L278.117742241612,70.04490828098312M278.117742241612,70.04490828098312L306.97162882317133,73.57982320522441M238.9789632279184,-46.01283652849502L230.02793127234654,-34.617945435962454" />
  <path
     id="path193"
     style="fill:rgb(238,238,238); fill-opacity: 0.4"
     d="M201.1740446907873,-38.15286036020378L201.17404469078733,106.13332012445709L230.02793127234656,-34.61794543596246z" />
  <path
     id="path195"
     style="fill:none;stroke:rgb(0,0,0);stroke-width:1;stroke-linecap:round"
     d="M315.92266077874314,8.92845491093264L306.97162882317133,20.32334600346522M306.97162882317133,20.32334600346522L306.97162882317133,73.57982320522441" />
  <path
     id="path197"
     style="fill:rgb(238,238,238); fill-opacity: 0.4"
     d="M230.02793127234656,-34.61794543596246L238.9789632279184,-46.01283652849503L210.12507664635916,-49.54775145273635zM306.9716288231713,20.32334600346522L315.9226607787431,8.928454910932649L287.06877419718387,5.393539986691327zM278.117742241612,70.04490828098312L306.9716288231713,73.57982320522444L306.9716288231713,20.32334600346522zM201.1740446907873,-38.15286036020378L230.02793127234656,-34.61794543596246L210.12507664635916,-49.54775145273635zM306.9716288231713,20.32334600346522L306.9716288231713,73.57982320522444L315.9226607787431,8.928454910932649zM278.117742241612,16.7884310792239L306.9716288231713,20.32334600346522L287.06877419718387,5.393539986691327zM278.117742241612,16.7884310792239L278.117742241612,70.04490828098312L306.9716288231713,20.32334600346522z" />
  <path
     id="path199"
     style="fill:none;stroke:rgb(0,0,0);stroke-width:1;stroke-linecap:round"
     d="M201.1740446907873,-38.15286036020378L230.02793127234654,-34.617945435962454M278.117742241612,16.788431079223898L306.97162882317133,20.32334600346522" />
  <path
     inkscape:connector-curvature="0"
     id="path782"
     d="M 83.653634,-41.911301 46.647684,67.092607 Z"
     style="fill:#800000;stroke:#d40000;stroke-width:1px;stroke-linecap:butt;stroke-linejoin:miter;stroke-opacity:1" />
  <text
     id="text1122-3-2-5-2-5-3-0-2"
     y="70.371338"
     x="-18.665468"
     style="font-weight:bold;font-size:13.33329999999999949px;line-height:0.55;font-family:'Courier New';-inkscape-font-specification:'Courier New Bold';"
     xml:space="preserve"><tspan
       style="font-style:normal;font-variant:normal;font-weight:bold;font-stretch:normal;font-size:10.6667px;font-family:'Courier New';-inkscape-font-specification:'Courier New Bold';font-variant-ligatures:normal;font-variant-caps:normal;font-variant-numeric:normal;font-variant-east-asian:normal"
       id="tspan1124-1-3-6-1-7-6-2-6"
       y="70.371338"
       x="-18.665468"
       sodipodi:role="line">flatten</tspan></text>
  <text
     xml:space="preserve"
     style="font-weight:bold;font-size:13.3333px;line-height:0.55;font-family:'Courier New';-inkscape-font-specification:'Courier New Bold'"
     x="53.575344"
     y="53.216602"
     id="text1122-3-2-5-2-5-3-0-2-1"><tspan
       id="tspan260"
       sodipodi:role="line"
       x="53.575344"
       y="53.216602"
       style="font-style:normal;font-variant:normal;font-weight:bold;font-stretch:normal;font-size:10.6667px;font-family:'Courier New';-inkscape-font-specification:'Courier New Bold';font-variant-ligatures:normal;font-variant-caps:normal;font-variant-numeric:normal;font-variant-east-asian:normal">10</tspan></text>
  <text
     id="text1122-3-2-5-2-5-3-0-2-1-3"
     y="80.501137"
     x="285.07297"
     style="font-weight:bold;font-size:13.3333px;line-height:0.55;font-family:'Courier New';-inkscape-font-specification:'Courier New Bold'"
     xml:space="preserve"><tspan
       style="font-style:normal;font-variant:normal;font-weight:bold;font-stretch:normal;font-size:10.6667px;font-family:'Courier New';-inkscape-font-specification:'Courier New Bold';font-variant-ligatures:normal;font-variant-caps:normal;font-variant-numeric:normal;font-variant-east-asian:normal"
       y="80.501137"
       x="285.07297"
       sodipodi:role="line"
       id="tspan260-8">10</tspan></text>
  <text
     xml:space="preserve"
     style="font-weight:bold;font-size:13.3333px;line-height:0.55;font-family:'Courier New';-inkscape-font-specification:'Courier New Bold'"
     x="127.2722"
     y="99.860992"
     id="text1122-3-2-5-2-5-3-0-2-1-3-4"><tspan
       id="tspan318"
       sodipodi:role="line"
       x="127.2722"
       y="99.860992"
       style="font-style:normal;font-variant:normal;font-weight:bold;font-stretch:normal;font-size:10.6667px;font-family:'Courier New';-inkscape-font-specification:'Courier New Bold';font-variant-ligatures:normal;font-variant-caps:normal;font-variant-numeric:normal;font-variant-east-asian:normal">256</tspan></text>
  <text
     id="text1122-3-2-5-2-5-3-0-2-1-3-4-0"
     y="117.83801"
     x="206.09448"
     style="font-weight:bold;font-size:13.3333px;line-height:0.55;font-family:'Courier New';-inkscape-font-specification:'Courier New Bold'"
     xml:space="preserve"><tspan
       style="font-style:normal;font-variant:normal;font-weight:bold;font-stretch:normal;font-size:10.6667px;font-family:'Courier New';-inkscape-font-specification:'Courier New Bold';font-variant-ligatures:normal;font-variant-caps:normal;font-variant-numeric:normal;font-variant-east-asian:normal"
       y="117.83801"
       x="206.09448"
       sodipodi:role="line"
       id="tspan260-8-5-6">512</tspan></text>
  <text
     id="text774"
     y="-10.747551"
     x="-214.20372"
     style="font-weight:bold;font-size:13.33329999999999949px;line-height:1.25;font-family:'Courier New';-inkscape-font-specification:'Courier New Bold';"
     xml:space="preserve"><tspan
       dx="0"
       style="font-style:normal;font-variant:normal;font-weight:bold;font-stretch:normal;font-size:26.6667px;font-family:'Courier New';-inkscape-font-specification:'Courier New Bold';font-variant-ligatures:normal;font-variant-caps:normal;font-variant-numeric:normal;font-variant-east-asian:normal;letter-spacing:-5px;word-spacing:-0.01px"
       y="-10.747551"
       x="-214.20372"
       id="tspan772"
       sodipodi:role="line">...</tspan></text>
</svg>
